<?xml version="1.0" encoding="utf-8"?>
<!-- Generator: Adobe Illustrator 16.0.4, SVG Export Plug-In . SVG Version: 6.00 Build 0)  -->
<!DOCTYPE svg PUBLIC "-//W3C//DTD SVG 1.1//EN" "http://www.w3.org/Graphics/SVG/1.1/DTD/svg11.dtd">
<svg version="1.1" id="Layer_1" xmlns="http://www.w3.org/2000/svg" xmlns:xlink="http://www.w3.org/1999/xlink" x="0px" y="0px"
	 width="74px" height="74px" viewBox="0 0 74 74" enable-background="new 0 0 74 74" xml:space="preserve">
<path fill="#41BFE2" d="M1.19,36.545c-0.253,0.254-0.253,0.663,0,0.918l34.092,34.092c0.197-1.44,0.36-2.898,0.483-4.383
	c1.378-17.372-2.943-34.783-12.957-52.247L1.19,36.545z"/>
<path fill="#41BFE2" d="M73.551,36.545L37.828,0.823c-0.252-0.253-0.663-0.253-0.915,0l-0.364,0.366
	c0.554,4.687,1.011,9.958,1.37,15.819c1.012,15.844,1.171,29.787,0.474,41.818c-0.312,5.351-0.767,10.16-1.364,14.436
	c0.25,0.159,0.581,0.142,0.799-0.077l35.723-35.721C73.805,37.208,73.805,36.799,73.551,36.545z"/>
</svg>
